<svg preserveAspectRatio="none" width="100%" height="100%" overflow="visible" style="display: block;" viewBox="0 0 189.033 35.9062" fill="none" xmlns="http://www.w3.org/2000/svg">
<g id="svg892580969_2781" clip-path="url(#clip0_69_15)">
<path id="Vector" d="M15.7267 6.37565e-07L0.00691201 8.97655V26.9297L15.7267 35.9062L31.4475 26.9297V8.97655L15.7267 6.37565e-07ZM15.7267 6.37565e-07L0.00691201 8.97655V26.9297L15.7267 35.9062L31.4475 26.9297V8.97655L15.7267 6.37565e-07Z" fill="var(--fill-0, white)"/>
<path id="Vector_2" d="M21.9333 28.893H19.695L17.0178 26.4621V25.215L19.7901 22.5969V18.4514L23.4127 16.1136L27.5396 19.2002L21.9333 28.893ZM12.6709 22.3483L13.0811 18.4514L11.7257 14.9606H19.7277L18.4049 18.4514L18.7825 22.3483H15.695H12.6709ZM14.498 26.4621L11.8208 28.9247H9.55173L3.91382 19.2002L8.07141 16.1453L11.7257 18.4514V22.5969L14.498 25.215V26.4621ZM9.52102 7.76013H21.9016L23.382 13.9948H8.0724L9.52102 7.76013ZM15.7267 6.37565e-07L0.00691201 8.97655V26.9297L15.7267 35.9062L31.4475 26.9297V8.97655L15.7267 6.37565e-07Z" fill="var(--fill-0, #03316C)"/>
<path id="Vector_3" d="M49.0885 26.2749C44.9299 26.2749 41.8751 23.0654 41.8751 19.1061C41.8751 15.1468 44.9616 11.8443 49.1202 11.8443C51.7657 11.8443 53.4046 12.8101 54.6967 14.2127L52.712 16.3325C51.735 15.3033 50.6956 14.6188 49.0885 14.6188C46.757 14.6188 45.0557 16.6129 45.0557 19.0437C45.0557 21.537 46.7897 23.532 49.247 23.532C50.7581 23.532 51.8609 22.8158 52.8686 21.8183L54.7908 23.7192C53.4046 25.1843 51.7984 26.2749 49.0885 26.2749ZM60.8706 26.2749H57.6573V11.875H60.8706V15.2409C61.7525 13.1845 63.3596 11.7501 65.8169 11.875V15.2409H65.6287C62.8246 15.2409 60.8706 17.0487 60.8706 20.7267V26.2749ZM82.6078 11.8126L75.5193 30.1401H72.2753L73.819 26.2749L67.7382 11.8126H71.1725L75.2993 22.5038L79.2687 11.8126H82.6078ZM92.0585 14.5871C89.8856 14.5871 87.9951 16.3325 87.9951 19.0447C87.9951 21.7569 89.9173 23.5013 92.0585 23.5013C94.2641 23.5013 96.0596 21.7876 96.0596 19.0437C96.0596 16.2998 94.2324 14.5871 92.0585 14.5871ZM92.7838 26.2442C90.4841 26.2442 89.0344 25.0902 88.0575 23.8123V30.1401H84.8452V11.8126H88.0585V14.3999C89.0979 12.9666 90.5465 11.8126 92.7838 11.8126C96.0913 11.8126 99.3046 14.3999 99.3046 19.013C99.3046 23.6261 96.123 26.2442 92.7838 26.2442ZM106.33 14.8358V21.6311C106.33 22.8465 106.96 23.3448 108.063 23.3448H109.323V26.1818H107.117C104.786 26.1818 103.116 25.1526 103.116 22.1303V14.8358H101.353V12.1246H103.116V8.32178H106.33V12.1246H109.322V14.8358H106.33ZM119.435 14.5871C116.851 14.5871 115.214 16.5812 115.214 19.013C115.214 21.4756 116.977 23.5003 119.466 23.5003C122.049 23.5003 123.687 21.5063 123.687 19.0754C123.751 16.6129 121.955 14.5871 119.435 14.5871ZM119.435 26.2759C115.182 26.2759 112.032 23.0644 112.032 19.1061C112.032 15.1171 115.214 11.8443 119.498 11.8443C123.782 11.8443 126.932 15.0537 126.932 19.0437C126.932 22.9713 123.782 26.2759 119.435 26.2759ZM157.585 14.5871C155.002 14.5871 153.364 16.5812 153.364 19.013C153.364 21.4756 155.128 23.5003 157.617 23.5003C160.2 23.5003 161.838 21.5063 161.838 19.0754C161.87 16.6129 160.106 14.5871 157.585 14.5871ZM157.585 26.2759C153.332 26.2759 150.182 23.0644 150.182 19.1061C150.182 15.1171 153.364 11.8443 157.649 11.8443C161.933 11.8443 165.083 15.0537 165.083 19.0437C165.083 22.9713 161.901 26.2759 157.585 26.2759ZM184.111 11.8126C187.167 11.8126 189.026 13.7144 189.026 17.1121V26.2442H185.812V18.0779C185.812 15.865 184.772 14.712 182.977 14.712C181.244 14.712 179.984 15.9274 179.984 18.1393V26.2749H176.771V18.0779C176.771 15.9274 175.7 14.712 173.935 14.712C172.17 14.712 170.943 16.0205 170.943 18.171V26.2749H167.729V11.8443H170.943V14.2127C171.856 12.9973 173.053 11.8443 175.195 11.8443C177.212 11.8443 178.598 12.8101 179.354 14.2751C180.519 12.7794 182.001 11.8126 184.111 11.8126ZM129.736 23.1893L131.123 22.4097H131.311L132.73 23.1893L132.824 23.3448V24.9663L132.73 25.1219L131.312 25.9014H131.123L129.736 25.1219L129.642 24.9663V23.3448L129.736 23.1893ZM142.558 26.2442C138.399 26.1501 135.407 22.8772 135.47 18.9189C135.534 14.9606 138.684 11.7194 142.873 11.8126C145.519 11.875 147.157 12.8725 148.418 14.3068L146.401 16.3949C145.456 15.3657 144.417 14.6178 142.811 14.5871C140.479 14.5554 138.746 16.489 138.714 18.9506C138.652 21.4439 140.353 23.4696 142.811 23.5013C144.323 23.532 145.456 22.8465 146.465 21.849L148.354 23.7806C146.938 25.2467 145.299 26.3066 142.558 26.2442Z" fill="var(--fill-0, #002E73)"/>
</g>
<defs>
<clipPath id="clip0_69_15">
<rect width="189.033" height="35.9062" fill="white"/>
</clipPath>
</defs>
</svg>
