<svg preserveAspectRatio="none" width="100%" height="100%" overflow="visible" style="display: block;" viewBox="0 0 133.096 23.9583" fill="none" xmlns="http://www.w3.org/2000/svg">
<g id="Group">
<path id="Vector" d="M26.8629 6.68887C22.0272 6.68887 18.2495 10.3874 18.2495 15.3386C18.2495 20.2905 21.9322 23.9568 26.8621 23.9568C31.7928 23.9568 35.5392 20.2268 35.5392 15.3071C35.5392 10.4189 31.858 6.68887 26.8629 6.68887ZM26.8951 20.3885C24.1415 20.3885 22.1238 18.2338 22.1238 15.3401C22.1238 12.4127 24.1093 10.2594 26.8629 10.2594C29.6479 10.2594 31.6648 12.4456 31.6648 15.3401C31.6648 18.2338 29.6487 20.3885 26.8951 20.3885ZM36.5955 10.4518H38.9973V23.6364H42.8394V7.01081H36.5955V10.4526V10.4518ZM8.58046 10.2579C10.5981 10.2579 12.1988 11.512 12.8067 13.3777H16.8734C16.136 9.39017 12.8703 6.68887 8.6134 6.68887C3.77777 6.68887 0 10.3874 0 15.3401C0.000748666 20.2927 3.68269 23.9583 8.6134 23.9583C12.7752 23.9583 16.1046 21.257 16.8412 17.2365H12.8059C12.2302 19.1023 10.6296 20.3885 8.6119 20.3885C5.82612 20.3885 3.87285 18.2338 3.87285 15.3401C3.87435 12.4127 5.79542 10.2579 8.58046 10.2579ZM109.595 13.7319L106.778 13.3141C105.433 13.1217 104.473 12.671 104.473 11.6093C104.473 10.4518 105.721 9.87383 107.418 9.87383C109.275 9.87383 110.46 10.6772 110.716 11.9956H114.43C114.014 8.6512 111.452 6.68962 107.514 6.68962C103.448 6.68962 100.758 8.77998 100.758 11.7388C100.758 14.5682 102.52 16.2086 106.073 16.7229L108.89 17.1407C110.268 17.3331 111.036 17.8812 111.036 18.9099C111.036 20.2276 109.692 20.7741 107.835 20.7741C105.561 20.7741 104.28 19.842 104.089 18.4277H100.31C100.663 21.6756 103.192 23.9583 107.802 23.9583C111.997 23.9583 114.782 22.0289 114.782 18.716C114.782 15.7578 112.766 14.214 109.595 13.7319ZM40.9183 0.16097C39.5093 0.16097 38.4522 1.18968 38.4522 2.60397C38.4522 4.01901 39.5078 5.04772 40.9183 5.04772C42.3266 5.04772 43.3837 4.01901 43.3837 2.60397C43.3837 1.18893 42.3266 0.16097 40.9183 0.16097ZM97.3011 12.7032C97.3011 9.10192 95.124 6.68962 90.513 6.68962C86.1587 6.68962 83.7256 8.9095 83.2449 12.3183H87.0556C87.2473 10.9999 88.2722 9.90677 90.4493 9.90677C92.4026 9.90677 93.3631 10.7745 93.3631 11.8362C93.3631 13.219 91.6015 13.5724 89.4244 13.7978C86.4791 14.1189 82.8294 15.1477 82.8294 19.0072C82.8294 21.9982 85.0395 23.9261 88.5612 23.9261C91.314 23.9261 93.0435 22.7687 93.9082 20.9351C94.0362 22.5747 95.2528 23.6371 96.9507 23.6371H99.1915V20.1961H97.3019V12.7032H97.3011ZM93.5226 16.8839C93.5226 19.103 91.6015 20.7434 89.2642 20.7434C87.823 20.7434 86.6064 20.1317 86.6064 18.8462C86.6064 17.2066 88.5597 16.7559 90.3528 16.5634C92.0814 16.4025 93.042 16.0169 93.5226 15.2764V16.8839ZM73.1282 6.68887C70.9818 6.68887 69.1895 7.58955 67.9085 9.10042V0H64.0663V23.6364H67.8441V21.4502C69.1251 23.0255 70.9511 23.9583 73.1282 23.9583C77.7385 23.9583 81.2288 20.2927 81.2288 15.3401C81.2288 10.3874 77.6741 6.68887 73.1282 6.68887ZM72.5517 20.3885C69.7981 20.3885 67.7805 18.2338 67.7805 15.3401C67.7805 12.4464 69.8296 10.2594 72.5832 10.2594C75.3689 10.2594 77.3215 12.4142 77.3215 15.3401C77.3215 18.2338 75.3046 20.3885 72.5517 20.3885ZM54.8772 6.68887C52.3797 6.68887 50.7468 7.71758 49.7863 9.16481V7.01006H45.9756V23.6364H49.8177V14.5996C49.8177 12.0593 51.4184 10.2579 53.7879 10.2579C55.9972 10.2579 57.374 11.8339 57.374 14.1174V23.6371H61.2147V13.8292C61.2169 9.64697 59.072 6.68887 54.8772 6.68887ZM133.096 14.7935C133.096 10.0341 129.638 6.68962 124.996 6.68962C120.065 6.68962 116.447 10.4204 116.447 15.3401C116.447 20.5181 120.321 23.9583 125.059 23.9583C129.063 23.9583 132.199 21.5782 133 18.2023H128.997C128.421 19.6818 127.012 20.5181 125.122 20.5181C122.656 20.5181 120.799 18.9743 120.384 16.273H133.095V14.7935H133.096ZM120.609 13.5058C121.217 11.1908 122.947 10.0662 124.931 10.0662C127.109 10.0662 128.774 11.3196 129.158 13.5065H120.609V13.5058Z" fill="var(--fill-0, #0048FF)"/>
</g>
</svg>
