<svg preserveAspectRatio="none" width="100%" height="100%" overflow="visible" style="display: block;" viewBox="0 0 163.045 31.9688" fill="none" xmlns="http://www.w3.org/2000/svg">
<g id="svg-1306929289_4530" clip-path="url(#clip0_69_10)">
<path id="Vector" d="M39.4015 8.56882C37.8615 8.56882 36.2342 9.32253 35.2173 10.4822H35.1592V3.2059H32.3406V24.3677H34.9267V22.8893H34.9848C35.9727 24.0197 37.7742 24.8025 39.3435 24.8025C43.4113 24.8025 46.0265 21.6137 46.0265 16.6858C46.0265 11.9026 43.2952 8.56901 39.4015 8.56901V8.56882ZM38.9075 22.2515C36.7863 22.2515 35.1592 20.8021 35.1592 18.8889V14.7723C35.1592 12.7144 36.7863 11.1489 38.9075 11.1489C41.6679 11.1489 43.2079 13.149 43.2079 16.6856C43.2079 20.2514 41.6679 22.2515 38.9075 22.2515ZM23.1877 8.56882C19.0035 8.56882 16.1267 11.9026 16.1267 16.6858C16.1267 21.5848 18.9162 24.8025 23.1877 24.8025C27.401 24.8025 30.1613 21.5848 30.1613 16.6858C30.1613 11.9026 27.3136 8.56882 23.1877 8.56882ZM23.1877 22.2515C20.5435 22.2515 18.9163 20.1062 18.9163 16.6858C18.9163 13.2651 20.5435 11.1489 23.1877 11.1489C25.7446 11.1489 27.3719 13.3229 27.3719 16.6856C27.3719 20.0774 25.7446 22.2515 23.1877 22.2515ZM14.8192 9.96034C14.8192 6.36571 12.146 4.07573 7.96173 4.07573H0V24.3677H2.90577V16.3378H7.06096C10.2571 16.3378 11.4194 17.6132 11.4194 21.1498V24.3677H14.2381V21.1498C14.2381 17.9117 13.25 15.9869 11.0969 15.1956C13.3022 14.4246 14.8192 12.6098 14.8192 9.96034ZM7.72923 13.7578H2.90577V6.71364H7.70019C10.4606 6.71364 11.8844 7.90218 11.8844 10.2502C11.8844 12.5114 10.4315 13.7578 7.72923 13.7578ZM61.3977 8.56882C59.7706 8.56882 58.0271 9.35156 57.1844 10.4822H57.1263V9.00383H54.366V24.3677H57.1844V14.7143C57.1844 12.5404 58.6083 11.1779 60.8458 11.1779C63.054 11.1779 64.1 12.4533 64.1 15.1203V24.3677H66.9477V14.3087C66.9477 10.7719 64.7975 8.56882 61.3977 8.56882ZM107.366 8.56882C103.182 8.56882 100.305 11.9026 100.305 16.6858C100.305 21.5848 103.095 24.8025 107.366 24.8025C111.579 24.8025 114.34 21.5848 114.34 16.6858C114.34 11.9026 111.492 8.56882 107.366 8.56882ZM107.366 22.2515C104.722 22.2515 103.095 20.1062 103.095 16.6858C103.095 13.2651 104.722 11.1489 107.366 11.1489C109.923 11.1489 111.55 13.3229 111.55 16.6856C111.55 20.0774 109.923 22.2515 107.366 22.2515ZM126.951 3.2061V10.4822H126.892C125.876 9.2937 124.277 8.56901 122.737 8.56901C118.844 8.56901 116.083 11.9604 116.083 16.6858C116.083 21.6137 118.698 24.8025 122.767 24.8025C124.336 24.8025 126.137 24.0197 127.125 22.8893H127.183V24.3677H129.769V3.2061H126.951ZM126.951 18.8889C126.951 20.8021 125.323 22.2515 123.202 22.2515C120.442 22.2515 118.902 20.2514 118.902 16.6858C118.902 13.1492 120.442 11.1489 123.202 11.1489C125.323 11.1489 126.951 12.7142 126.951 14.7723V18.8889ZM91.5881 8.56882C87.4038 8.56882 84.5273 11.9026 84.5273 16.6858C84.5273 21.5848 87.3167 24.8025 91.5881 24.8025C95.8015 24.8025 98.5619 21.5848 98.5619 16.6858C98.5619 11.9026 95.7142 8.56882 91.5881 8.56882ZM91.5881 22.2515C88.944 22.2515 87.3167 20.1062 87.3167 16.6858C87.3167 13.2651 88.944 11.1489 91.5881 11.1489C94.1452 11.1489 95.7723 13.3229 95.7723 16.6856C95.7723 20.0774 94.1452 22.2515 91.5881 22.2515ZM51.2858 3.2061H48.2348V6.19175H51.2858V3.2061ZM77.0015 8.56882C75.2871 8.56882 73.5437 9.38059 72.73 10.5401H72.6719V3.2061H69.8535V24.3677H72.6719V14.7143C72.6719 12.6273 74.1829 11.1779 76.3331 11.1779C78.4542 11.1779 79.6746 12.5692 79.6746 14.9753V24.3677H82.4933V14.2797C82.4933 10.7721 80.3721 8.56882 77.0015 8.56882ZM51.1696 9.00363H48.3512V24.3675H51.1696V9.00363ZM149.203 25.0981L148.99 25.1677C147.625 25.62 145.605 26.3186 143.792 27.1505C143.696 27.1968 143.632 27.3245 143.632 27.3245C143.598 27.4028 143.557 27.4985 143.51 27.6057L143.505 27.6201C143.301 28.0812 143.022 28.7739 142.9 29.0581L142.807 29.2813C142.8 29.2985 142.798 29.3175 142.803 29.3357C142.807 29.3539 142.817 29.3703 142.83 29.3827C142.838 29.391 142.848 29.3975 142.858 29.402C142.869 29.4065 142.88 29.4088 142.891 29.4087C142.905 29.4083 142.919 29.4054 142.932 29.4001L143.15 29.2958C143.647 29.0608 144.275 28.7043 144.931 28.3912L144.955 28.3797C146.207 27.7883 147.619 27.1186 148.47 26.7128C148.47 26.7128 148.607 26.6404 148.677 26.5041L149.313 25.2287C149.321 25.2124 149.324 25.1941 149.322 25.176C149.32 25.158 149.313 25.1409 149.301 25.127C149.289 25.1131 149.274 25.103 149.256 25.0978C149.239 25.0927 149.22 25.0927 149.203 25.0981ZM144.112 23.124C144.202 22.9501 144.615 22.1558 144.708 21.9788L144.725 21.9471C147.491 16.7436 150.862 11.833 154.741 7.35714L154.849 7.2324C154.864 7.21315 154.874 7.18974 154.877 7.16504C154.879 7.14034 154.874 7.11543 154.863 7.09335C154.851 7.07149 154.833 7.05375 154.81 7.0424C154.788 7.03104 154.763 7.02659 154.738 7.02961L154.575 7.05275C152 7.40899 149.442 7.8898 146.913 8.4935C146.741 8.5429 146.586 8.63698 146.463 8.76612C144.558 11.0413 142.772 13.4137 141.113 15.8738C141.034 15.999 141.003 16.1479 141.023 16.2943C141.041 16.4247 141.439 19.4829 142.043 21.8312C140.544 26.136 139.204 31.809 139.204 31.809C139.199 31.827 139.198 31.846 139.201 31.8646C139.204 31.8831 139.211 31.9007 139.222 31.9162C139.233 31.9318 139.248 31.9444 139.265 31.953C139.282 31.9616 139.301 31.9659 139.32 31.9655H140.175C140.201 31.9657 140.226 31.9581 140.248 31.9437C140.27 31.9292 140.287 31.9085 140.297 31.8843L140.355 31.7248C141.23 29.3463 142.22 27.011 143.319 24.727C143.571 24.1965 144.112 23.124 144.112 23.124Z" fill="var(--fill-0, #00C805)"/>
<path id="Vector_2" d="M155.993 8.28776L155.99 8.12537C155.989 8.10065 155.981 8.07678 155.967 8.0567C155.952 8.03663 155.932 8.02123 155.909 8.0124C155.885 8.00421 155.86 8.00314 155.835 8.00931C155.811 8.01548 155.789 8.02862 155.772 8.04712L155.665 8.16872C151.141 13.3896 147.337 19.1817 144.362 25.3879L144.292 25.5331C144.281 25.5556 144.277 25.5809 144.28 25.6058C144.284 25.6306 144.295 25.6538 144.312 25.6721C144.33 25.6899 144.352 25.7021 144.376 25.7073C144.401 25.7124 144.426 25.7103 144.449 25.7012L144.597 25.6402C147.14 24.5909 149.734 23.6806 152.312 22.9356C152.388 22.9133 152.46 22.8756 152.521 22.8247C152.582 22.7739 152.633 22.711 152.669 22.64C153.799 20.4426 156.423 16.187 156.423 16.187C156.49 16.0915 156.473 15.9493 156.473 15.9493C156.473 15.9493 156.022 10.8617 155.993 8.28776Z" fill="var(--fill-0, #00C805)"/>
<path id="Vector_3" d="M161.843 0.947885C161.2 0.391275 160.268 0.130425 158.821 0.0984561C157.507 0.0694292 155.947 0.353422 154.177 0.933371C153.913 1.02614 153.701 1.17402 153.512 1.35661C151.702 3.05268 149.967 4.82649 148.311 6.67304L148.183 6.8123C148.166 6.83153 148.155 6.85553 148.153 6.88098C148.15 6.90642 148.156 6.93205 148.168 6.95429C148.181 6.97688 148.201 6.99466 148.226 7.00506C148.25 7.01546 148.276 7.01795 148.302 7.01215L148.488 6.97155C151.152 6.40337 153.843 5.96856 156.484 5.68162C156.571 5.6717 156.659 5.68054 156.743 5.70754C156.826 5.73454 156.902 5.77907 156.967 5.83813C157.031 5.89726 157.083 5.96946 157.117 6.04994C157.152 6.13043 157.169 6.21734 157.167 6.30491C157.123 8.91034 157.218 11.5163 157.452 14.1116L157.466 14.2797C157.472 14.3318 157.507 14.3724 157.559 14.3869C157.568 14.3897 157.577 14.3897 157.588 14.3928C157.626 14.3928 157.667 14.3752 157.693 14.3405L157.789 14.2043C159.284 12.0807 160.889 10.037 162.598 8.08183C162.79 7.86452 162.839 7.72821 162.874 7.5311C163.409 4.11633 162.583 1.58844 161.843 0.947885Z" fill="var(--fill-0, #00C805)"/>
</g>
<defs>
<clipPath id="clip0_69_10">
<rect width="163.045" height="31.9688" fill="white"/>
</clipPath>
</defs>
</svg>
