<svg width="580" height="170" viewBox="0 0 580 170" fill="none" xmlns="http://www.w3.org/2000/svg">
<mask id="mask0_40002102_1501" style="mask-type:alpha" maskUnits="userSpaceOnUse" x="0" y="4" width="75" height="150">
<path d="M35.9235 61.7431H0V35.0009C11.9028 35.2862 21.7262 33.1468 29.4702 28.5828C38.6482 23.163 43.5957 15.0334 44.3128 4.19385H74.6434V153.309H35.9235V61.7431Z" fill="#F7BD15"/>
</mask>
<g mask="url(#mask0_40002102_1501)">
<path d="M-49.1543 49.4233L61.4903 -23.705L93.5667 24.2996L-17.0778 97.4279L-49.1543 49.4233Z" fill="#4486EC"/>
<path d="M1.32031 116.944L111.965 43.8155L130.079 70.9252L19.4349 144.054L1.32031 116.944Z" fill="#F7BD15"/>
<path d="M-17.1035 97.3999L93.541 24.2716L109.266 47.8047L-1.37878 120.933L-17.1035 97.3999Z" fill="#E24538"/>
<path d="M9.13086 150.778L132.931 68.9543L157.951 106.398L34.1507 188.222L9.13086 150.778Z" fill="#36B157"/>
</g>
<path d="M171.4 0V14.2116H180.988V22.9219H171.4V46.394C171.4 50.795 172.507 51.8952 176.932 51.8952C178.315 51.8952 179.605 51.8035 180.988 51.5285V61.7058C178.775 62.0726 175.918 62.1642 173.336 62.1642C165.316 62.1642 158.309 60.3305 158.309 50.8867V22.9219H150.381V14.2116H158.309V0H171.4Z" fill="black"/>
<path d="M102.998 46.2196H115.444C115.536 51.9043 120.33 54.1965 125.492 54.1965C129.272 54.1965 134.066 52.7295 134.066 48.1451C134.066 44.2025 128.627 42.8272 119.224 40.8101C111.664 39.1597 104.104 36.5007 104.104 28.1572C104.104 16.0544 114.614 12.937 124.847 12.937C135.265 12.937 144.852 16.4211 145.867 28.0655H133.421C133.052 23.0227 129.18 21.6473 124.478 21.6473C121.528 21.6473 117.195 22.1975 117.195 26.0484C117.195 30.7244 124.571 31.3662 132.038 33.1083C139.69 34.8504 147.157 37.601 147.157 46.403C147.157 58.8725 136.279 62.9068 125.4 62.9068C114.337 62.9068 103.551 58.7809 102.998 46.2196Z" fill="black"/>
<path d="M535.287 153.313V105.91H547.733V112.512H548.009C551.328 107.194 557.044 104.626 562.575 104.626C576.496 104.626 579.999 112.42 579.999 124.156V153.313H566.908V126.54C566.908 118.746 564.604 114.895 558.519 114.895C551.42 114.895 548.378 118.838 548.378 128.465V153.313H535.287Z" fill="black"/>
<path d="M477.459 129.657C477.459 114.529 487.139 104.626 502.074 104.626C517.101 104.626 526.781 114.529 526.781 129.657C526.781 144.694 517.101 154.596 502.074 154.596C487.139 154.596 477.459 144.694 477.459 129.657ZM490.55 129.657C490.55 137.176 493.224 144.786 502.074 144.786C511.016 144.786 513.69 137.176 513.69 129.657C513.69 122.047 511.016 114.437 502.074 114.437C493.224 114.437 490.55 122.047 490.55 129.657Z" fill="black"/>
<path d="M455.523 153.303V105.9H468.614V153.303H455.523ZM468.614 87.8379V98.5654H455.523V87.8379H468.614Z" fill="black"/>
<path d="M403.334 137.909H415.78C415.872 143.594 420.666 145.886 425.828 145.886C429.608 145.886 434.402 144.419 434.402 139.835C434.402 135.892 428.963 134.517 419.559 132.5C412 130.849 404.44 128.19 404.44 119.847C404.44 107.744 414.95 104.626 425.183 104.626C435.601 104.626 445.188 108.111 446.202 119.755H433.757C433.388 114.712 429.516 113.337 424.814 113.337C421.864 113.337 417.531 113.887 417.531 117.738C417.531 122.414 424.906 123.056 432.374 124.798C440.026 126.54 447.493 129.29 447.493 138.092C447.493 150.562 436.615 154.596 425.736 154.596C414.673 154.596 403.887 150.47 403.334 137.909Z" fill="black"/>
<path d="M353.816 137.909H366.262C366.354 143.594 371.148 145.886 376.311 145.886C380.091 145.886 384.885 144.419 384.885 139.835C384.885 135.892 379.445 134.517 370.042 132.5C362.482 130.849 354.923 128.19 354.923 119.847C354.923 107.744 365.432 104.626 375.666 104.626C386.083 104.626 395.671 108.111 396.685 119.755H384.239C383.87 114.712 379.998 113.337 375.297 113.337C372.347 113.337 368.014 113.887 368.014 117.738C368.014 122.414 375.389 123.056 382.856 124.798C390.508 126.54 397.976 129.29 397.976 138.092C397.976 150.562 387.097 154.596 376.219 154.596C365.156 154.596 354.37 150.47 353.816 137.909Z" fill="black"/>
<path d="M348.357 132.775H313.97C314.339 141.026 318.395 144.786 325.678 144.786C330.933 144.786 335.174 141.577 336.003 138.643H347.527C343.84 149.828 336.003 154.596 325.217 154.596C310.19 154.596 300.879 144.327 300.879 129.657C300.879 115.446 310.743 104.626 325.217 104.626C341.443 104.626 349.279 118.196 348.357 132.775ZM313.97 124.523H335.266C334.067 117.921 331.21 114.437 324.848 114.437C316.551 114.437 314.154 120.855 313.97 124.523Z" fill="black"/>
<path d="M268.979 153.313V105.91H281.424V114.712H281.609C284.006 108.752 290.459 104.626 296.82 104.626C297.742 104.626 298.848 104.81 299.678 105.085V117.188C298.479 116.913 296.543 116.729 294.976 116.729C285.388 116.729 282.07 123.606 282.07 131.949V153.313H268.979Z" fill="black"/>
<path d="M212.619 170V105.91H225.065V111.961H225.249C228.384 106.919 233.546 104.626 239.447 104.626C254.381 104.626 261.111 116.638 261.111 130.116C261.111 142.769 254.105 154.596 240.184 154.596C234.468 154.596 229.029 152.121 225.895 147.445H225.71V170H212.619ZM236.681 144.786C245.254 144.786 248.02 137.451 248.02 129.749C248.02 122.231 244.978 114.437 236.589 114.437C228.015 114.437 225.249 122.047 225.249 129.749C225.249 137.451 228.199 144.786 236.681 144.786Z" fill="black"/>
<path d="M129.434 153.313V105.91H141.787V112.328H141.971C145.383 107.469 150.361 104.626 156.538 104.626C162.53 104.626 167.877 106.827 170.458 112.512C173.224 108.386 178.202 104.626 184.84 104.626C194.981 104.626 202.264 109.303 202.264 121.589V153.313H189.173V126.448C189.173 120.122 188.62 114.895 181.152 114.895C173.777 114.895 172.394 120.947 172.394 126.907V153.313H159.303V126.723C159.303 121.222 159.672 114.895 151.375 114.895C148.794 114.895 142.525 116.546 142.525 125.806V153.313H129.434Z" fill="black"/>
<path d="M105.664 153.303V105.9H118.755V153.303H105.664ZM118.755 87.8379V98.5654H105.664V87.8379H118.755Z" fill="black"/>
</svg>
